<svg id="SvgjsSvg1001" width="550" height="550" xmlns="http://www.w3.org/2000/svg" version="1.1" xmlns:xlink="http://www.w3.org/1999/xlink" xmlns:svgjs="http://svgjs.com/svgjs"><defs id="SvgjsDefs1002"></defs><g id="SvgjsG1008"><svg xmlns="http://www.w3.org/2000/svg" xmlns:xlink="http://www.w3.org/1999/xlink" data-name="Layer 1" viewBox="0 0 2000 2000" width="550" height="550"><defs><linearGradient id="a" x1="-148.75" x2="2191.67" y1="1588.23" y2="588.3" gradientUnits="userSpaceOnUse"><stop offset="0" stop-color="#ffffff" class="stopColorfff svgShape"></stop><stop offset="1" stop-color="#d4dbea" class="stopColord4dbea svgShape"></stop></linearGradient><linearGradient id="c" x1="-450.1" x2="1890.3" y1="882.89" y2="-117.03" xlink:href="#a"></linearGradient><linearGradient id="b" x1="356.17" x2="554.48" y1="1493.89" y2="1493.89" gradientUnits="userSpaceOnUse"><stop offset="0" stop-color="#fbad18" class="stopColorfbad18 svgShape"></stop><stop offset="1" stop-color="#f47820" class="stopColorf47820 svgShape"></stop></linearGradient><linearGradient id="d" x1="1151.95" x2="1350.25" y1="1493.89" y2="1493.89" xlink:href="#b"></linearGradient><linearGradient id="e" x1="780.42" x2="1167.87" y1="1266.13" y2="1266.13" gradientTransform="rotate(.18 950.503 1233.551)" xlink:href="#b"></linearGradient><linearGradient id="f" x1="1208.47" x2="1242.74" y1="1184.21" y2="1184.21" xlink:href="#a"></linearGradient><linearGradient id="g" x1="822.79" x2="875.06" y1="1180.12" y2="1180.12" xlink:href="#a"></linearGradient><linearGradient id="h" x1="822.87" x2="875.15" y1="1209.51" y2="1209.51" xlink:href="#a"></linearGradient><linearGradient id="i" x1="1166.96" x2="1193.39" y1="967.19" y2="967.19" xlink:href="#a"></linearGradient><linearGradient id="j" x1="869.49" x2="909.81" y1="964.03" y2="964.03" xlink:href="#a"></linearGradient><linearGradient id="k" x1="869.55" x2="909.88" y1="986.7" y2="986.7" xlink:href="#a"></linearGradient><linearGradient id="l" x1="888.2" x2="1100.47" y1="854.82" y2="854.82" gradientTransform="rotate(.18 968.976 835.634)" xlink:href="#b"></linearGradient><linearGradient id="m" x1="1122.71" x2="1141.49" y1="809.93" y2="809.93" xlink:href="#a"></linearGradient><linearGradient id="n" x1="911.41" x2="940.05" y1="807.69" y2="807.69" xlink:href="#a"></linearGradient><linearGradient id="o" x1="911.45" x2="940.1" y1="823.79" y2="823.79" xlink:href="#a"></linearGradient><linearGradient id="p" x1="505.7" x2="626.75" y1="1187.51" y2="1187.51" xlink:href="#b"></linearGradient><linearGradient id="q" x1="391.54" x2="627.93" y1="941.98" y2="941.98" xlink:href="#b"></linearGradient><linearGradient id="r" x1="398.16" x2="937.78" y1="732.68" y2="732.68" xlink:href="#a"></linearGradient><linearGradient id="s" x1="591.72" x2="671.96" y1="577.29" y2="577.29" xlink:href="#a"></linearGradient><linearGradient id="t" x1="617.54" x2="682.8" y1="716.58" y2="716.58" xlink:href="#a"></linearGradient><linearGradient id="u" x1="627.65" x2="988.38" y1="865.33" y2="865.33" gradientTransform="rotate(29.83 807.997 865.32)" xlink:href="#b"></linearGradient><linearGradient id="v" x1="521.92" x2="548.36" y1="-827.26" y2="-827.26" gradientTransform="rotate(-29.66 3651.615 -830.844)" xlink:href="#a"></linearGradient><linearGradient id="w" x1="224.45" x2="264.77" y1="-830.43" y2="-830.43" gradientTransform="rotate(-29.66 3651.615 -830.844)" xlink:href="#a"></linearGradient><linearGradient id="x" x1="224.51" x2="264.84" y1="-807.76" y2="-807.76" gradientTransform="rotate(-29.66 3651.615 -830.844)" xlink:href="#a"></linearGradient><linearGradient id="y" x1="397.68" x2="938.09" y1="679.83" y2="679.83" xlink:href="#a"></linearGradient><linearGradient id="z" x1="398.08" x2="938.19" y1="736.11" y2="736.11" xlink:href="#a"></linearGradient><linearGradient id="A" x1="2810.26" x2="2925.44" y1="2027.66" y2="2027.66" gradientTransform="rotate(39 3972.23 -1777.147)" xlink:href="#b"></linearGradient><linearGradient id="B" x1="1282.92" x2="1485.8" y1="945.98" y2="945.98" xlink:href="#a"></linearGradient><linearGradient id="C" x1="1393.89" x2="1517.39" y1="1379.03" y2="1379.03" xlink:href="#b"></linearGradient><linearGradient id="D" x1="1477.27" x2="1691.97" y1="1374.56" y2="1374.56" xlink:href="#b"></linearGradient><linearGradient id="E" x1="1391.87" x2="1615.35" y1="1067.21" y2="1067.21" xlink:href="#a"></linearGradient><linearGradient id="F" x1="1518.48" x2="1635.39" y1="1005.95" y2="1005.95" xlink:href="#a"></linearGradient><linearGradient id="G" x1="6282.28" x2="6313.73" y1="447.79" y2="447.79" gradientTransform="matrix(-.98 .22 .22 .98 7483.35 -869.16)" xlink:href="#b"></linearGradient><linearGradient id="H" x1="6280.71" x2="6315.29" y1="461.3" y2="461.3" gradientTransform="matrix(1 0 0 -1 -4860.97 1411.73)" xlink:href="#b"></linearGradient><linearGradient id="I" x1="6507.55" x2="6616.79" y1="804.17" y2="804.17" gradientTransform="matrix(-1 0 0 1 8052.19 0)" xlink:href="#b"></linearGradient><linearGradient id="J" x1="2386.71" x2="2703.07" y1="621.87" y2="621.87" gradientTransform="translate(-900.33)" gradientUnits="userSpaceOnUse"><stop offset="0" stop-color="#33308e" class="stopColor33308e svgShape"></stop><stop offset="1" stop-color="#6669b0" class="stopColor6669b0 svgShape"></stop></linearGradient><linearGradient id="L" x1="1964.92" x2="4828.68" y1="974.46" y2="974.46" xlink:href="#a"></linearGradient><clipPath id="K"><path fill="none" d="M3672.83,747.82c-175.66-53.33-327.1-128.7-498.7-337.84S2541.37,265.2,2407.31,578.9s-37.54,603.27,123.33,656.9,229.91,106.12,318.73,311.88c71.25,165.06,467.36,244.55,590.1,85.36,224.48-291.12,230.68-177.39,337.93-394.56S3853.26,802.59,3672.83,747.82Z"></path></clipPath></defs><path fill="url(#a)" d="M1083.16,288.15c-216.29,42.62-326.71,287.57-675,505.55S136.52,1862.82,686.61,1724c524.8-132.43,549.08-122,892.79-109.74C2009.59,1629.56,1767.63,153.32,1083.16,288.15Z"></path><path fill="url(#c)" d="M496.56,647.25c101.51-80.78,186.05-221.75,138-357.58s-147.32,117-227.19,201.22C291.78,612.76,284.12,816.3,496.56,647.25Z"></path><rect width="1500.92" height="10.45" x="245.23" y="1739.21" fill="#cbd3eb" class="colorcbd3eb svgShape"></rect><rect width="1080.19" height="1080.19" x="314.92" y="341.9" fill="#29266e" class="color29266e svgShape"></rect><rect width="1032.22" height="1032.21" x="338.91" y="365.89" fill="#6669b0" class="color6669b0 svgShape"></rect><polygon fill="#6669b0" points="475.2 1398.11 338.91 1398.11 338.91 365.89 475.2 571.35 475.2 1398.11" class="color6669b0 svgShape"></polygon><polygon fill="#33308e" points="1234.83 571.35 475.2 571.35 338.91 365.89 1371.13 365.89 1234.83 571.35" class="color33308e svgShape"></polygon><rect width="759.63" height="826.76" x="475.2" y="571.35" fill="#2a276f" class="color2a276f svgShape"></rect><path fill="#33308e" d="M480.77 1739.21h0a73.94 73.94 0 01-73.72-73.71v-90.27a73.93 73.93 0 0173.72-73.71h0a73.92 73.92 0 0173.71 73.71v90.27A73.93 73.93 0 01480.77 1739.21zM1225.66 1739.21h0A73.93 73.93 0 011152 1665.5v-90.27a73.92 73.92 0 0173.71-73.71h0a73.92 73.92 0 0173.71 73.71v90.27A73.93 73.93 0 011225.66 1739.21z" class="color33308e svgShape"></path><rect width="1192.39" height="130.91" x="257.02" y="1422.09" fill="#33308e" class="color33308e svgShape"></rect><path fill="url(#b)" d="M514.44,1533.93H396.22a40.16,40.16,0,0,1-40.05-40h0a40.16,40.16,0,0,1,40.05-40H514.44a40.15,40.15,0,0,1,40,40h0A40.16,40.16,0,0,1,514.44,1533.93Z"></path><path fill="url(#d)" d="M1310.21,1533.93H1192a40.15,40.15,0,0,1-40-40h0a40.15,40.15,0,0,1,40-40h118.22a40.15,40.15,0,0,1,40,40h0A40.15,40.15,0,0,1,1310.21,1533.93Z"></path><rect width="386.63" height="266.13" x="780.83" y="1133.06" fill="url(#e)" transform="rotate(-.18 949.81 1233.353)"></rect><rect width="90.35" height="266.21" x="1163.21" y="1132.17" fill="#d25927" transform="rotate(-.23 1190.745 1247.954)" class="colord25927 svgShape"></rect><path fill="url(#f)" d="M1233.9,1196.49l-16.52.06c-4.9,0-8.89-5.47-8.91-12.27h0c0-6.79,3.94-12.33,8.83-12.34l16.53-.07c4.9,0,8.9,5.47,8.91,12.27h0C1242.77,1191,1238.81,1196.47,1233.9,1196.49Z"></path><path fill="url(#g)" d="M869.65,1187.56l-41.42.17c-3,0-5.43-3.35-5.44-7.51h0c0-4.16,2.39-7.54,5.4-7.55l41.42-.17c3,0,5.44,3.35,5.45,7.51h0C875.08,1184.17,872.66,1187.55,869.65,1187.56Z"></path><path fill="url(#h)" d="M869.75,1217l-41.43.17c-3,0-5.43-3.35-5.45-7.51h0c0-4.16,2.41-7.54,5.41-7.55l41.43-.17c3,0,5.43,3.35,5.44,7.51h0C875.17,1213.56,872.75,1216.93,869.75,1217Z"></path><rect width="298.2" height="205.27" x="837.13" y="927.73" fill="#6669b0" transform="rotate(-.18 962.903 1004.19)" class="color6669b0 svgShape"></rect><rect width="69.69" height="205.32" x="1132.05" y="927.05" fill="#33308e" transform="rotate(-.23 1148.866 1013.704)" class="color33308e svgShape"></rect><path fill="url(#i)" d="M1186.58,976.66l-12.75.05c-3.78,0-6.86-4.23-6.87-9.47h0c0-5.24,3-9.51,6.81-9.52l12.75-.05c3.78,0,6.86,4.22,6.87,9.46h0C1193.41,972.38,1190.36,976.65,1186.58,976.66Z"></path><path fill="url(#j)" d="M905.63,969.77l-32,.13c-2.3,0-4.19-2.58-4.19-5.79h0c0-3.21,1.85-5.82,4.16-5.83l32-.12c2.32,0,4.2,2.58,4.21,5.79h0C909.82,967.16,908,969.76,905.63,969.77Z"></path><path fill="url(#k)" d="M905.71,992.44l-32,.13c-2.31,0-4.18-2.58-4.2-5.79h0c0-3.21,1.86-5.82,4.17-5.82l32-.14c2.3,0,4.19,2.59,4.2,5.79h0C909.89,989.82,908,992.43,905.71,992.44Z"></path><rect width="211.82" height="145.8" x="888.42" y="781.91" fill="url(#l)" transform="rotate(-.18 969.534 835.496)"></rect><rect width="49.5" height="145.85" x="1097.92" y="781.42" fill="#d25927" transform="rotate(-.22 1144.25 869.449)" class="colord25927 svgShape"></rect><path fill="url(#m)" d="M1136.64,816.66l-9.05,0c-2.68,0-4.87-3-4.88-6.73h0c0-3.72,2.16-6.75,4.84-6.76l9,0c2.69,0,4.87,3,4.89,6.73h0C1141.5,813.62,1139.33,816.65,1136.64,816.66Z"></path><path fill="url(#n)" d="M937.08,811.77l-22.69.09c-1.64,0-3-1.84-3-4.12h0c0-2.27,1.31-4.12,3-4.13l22.69-.09c1.65,0,3,1.83,3,4.11h0C940.06,809.91,938.73,811.76,937.08,811.77Z"></path><path fill="url(#o)" d="M937.14,827.87l-22.7.09c-1.64,0-3-1.83-3-4.11h0c0-2.28,1.32-4.14,3-4.14l22.69-.09c1.64,0,3,1.84,3,4.11h0C940.11,826,938.78,827.86,937.14,827.87Z"></path><path fill="#d25927" d="M544.72,902.69c7.48-22.78-85.54-125.54-85.54-125.54C430.53,798,371.09,824.38,388.32,890c17.05,65,148.76,211.68,148.76,211.68s35.74-16.59,40-43.21S537.24,925.46,544.72,902.69Z" class="colord25927 svgShape"></path><path fill="#fed2a7" d="M556.71 1366.24c-41.33 0-13.3-49.84-4.14-76L513.25 1281c-10.54 26.22-2.31 52.45-23.49 87.16-15.06 24.67 2.6 28.64 2.6 28.64l99 0S591.35 1366.26 556.71 1366.24zM685.9 1371.19c-55.77-13.88-55.55-69.48-62.52-96.72l-41.46 15.26c17.56 26.48 24.93 33.89 21.71 78.32-2.29 31.59 6.73 28.72 6.73 28.72l107.48 1.34S718.18 1379.22 685.9 1371.19z" class="colorfed2a7 svgShape"></path><path fill="#6669b0" d="M686.12,1370.37c-9.67-2.7-27.28-9.49-34-18.3-2-2.71-6.6,8.8-10.07,12.53-7,7.49-31.69,2.67-38.15-2.62,0,2.2-.16,4-.31,6.07-2.29,31.59,6.73,28.72,6.73,28.72l107.48,1.34S719.73,1379.76,686.12,1370.37Z" class="color6669b0 svgShape"></path><path fill="#d25927" d="M513.46,1076.86C518.71,1101,586.33,1306,586.33,1306c23.18,2.42,45.72-14.12,45.72-14.12-4.82-25.46-25.89-244.22-25.89-244.22S508.21,1052.72,513.46,1076.86Z" class="colord25927 svgShape"></path><path fill="url(#p)" d="M543.27,1067.15c-7,25.2-37.57,236.6-37.57,236.6,17.42,15.32,43.14,12.83,43.14,12.83,8-26.18,77.91-238.08,77.91-238.08S550.31,1042,543.27,1067.15Z"></path><path fill="url(#q)" d="M563,895c4.81-24.4-105-131.11-105-131.11-27,22.89-86.2,51.88-59.82,121.15C424.26,953.56,592,1120.12,592,1120.12s34.93-18.59,35.91-47S558.17,919.34,563,895Z"></path><path fill="#f8b1ba" d="M711.56,923.64c-19.3-6.07-33.08,9.09-46.93-3s-21.43-14.07-16.45-27.21,15.43-8.67,37.32-1.79C706.86,898.36,740.23,932.66,711.56,923.64Z" class="colorf8b1ba svgShape"></path><path fill="#3f4164" d="M584.33,588.1c15-5.67,30.8-2.39,40.92,32.73,9.35,32.43,6.08,127.76,8,153,1.75,23.56-40.54,47-59.67,2.77s-16.15-88.84-13.77-128.37S568,594.27,584.33,588.1Z" class="color3f4164 svgShape"></path><path fill="#cbd3eb" d="M570.64,776.26C582.34,809,604.23,842,637.5,903.2c0,0,27.66-4.7,38.94-22.59,0,0-46.34-107.14-53-119.6S558.47,742.19,570.64,776.26Z" class="colorcbd3eb svgShape"></path><path fill="#f8b1ba" d="M684.87,568.23s-13.77-2.31-18.45,6.88-1.76,20.22-1.76,20.22-30.52-1.07-52.81-18.41c0,0,20.4-21.34,28.75-48.11S684.87,568.23,684.87,568.23Z" class="colorf8b1ba svgShape"></path><path fill="#e8959c" d="M651.19,577.53c4-12.61,16.94-18.86,29.23-17.06-9.88-16.65-33.3-52.6-39.82-31.66-8.35,26.77-28.75,48.11-28.75,48.11,11,8.54,23.93,13.13,34.28,15.59C647.77,587.5,649.6,582.55,651.19,577.53Z" class="colore8959c svgShape"></path><path fill="#f8b1ba" d="M744.08,525.37s-9.36,16.32-20,27.36-18.81,30.36-41,34.67-36.46-31.61-29.5-52.74,22.5-29.66,36.91-30.4S744.08,525.37,744.08,525.37Z" class="colorf8b1ba svgShape"></path><path fill="#e8959c" d="M684.27,561.77c4.89-5.72,46.28-43.47,46.28-43.47-12.74-6.31-31.13-14.5-40-14-14.41.74-30,9.28-36.91,30.4-6.59,20,5.82,53.24,26,53.07A27,27,0,0,1,684.27,561.77Z" class="colore8959c svgShape"></path><path fill="#2a276f" d="M723.45,525.05s-8.16.78-18.43,9.53-16.67,12.89-14.7,3.22,9.77-21.43-4.45-22c-9.4-.37-16.17,8.33-18.12,14.48s-16.21,11.76-25.35-2,9.23-53.42,9.23-53.42S721.84,502.19,723.45,525.05Z" class="color2a276f svgShape"></path><path fill="#2a276f" d="M762.34,487.78s13.23,17.3,3.58,32.51c-8.56,13.51-25,20.28-46.23,1.69s-33.72-6-48.31-11.65-23.57-18.45-20-34.41c3.7-16.57,17.1-29.64,40.83-30S776.81,466.52,762.34,487.78Z" class="color2a276f svgShape"></path><path fill="url(#r)" d="M686.79,660.82c-1.33,2.89-2.66,5.84-4,8.8-15.26,33.94-31.52,71.78-57.71,100.59a56.78,56.78,0,0,0-7.55,11.44c-.42.84-.84,1.69-1.29,2.54-.09.17-.17.34-.24.49-1.7,3.47-3.38,7.28-5,11.34-16.24,39.57-31.79,102.9-57,101.79-18.13-.81-66.13-18.88-104.12-38.19h0q-4.15-2.13-8.14-4.24l-2-1.11c-1.08-.58-2.13-1.16-3.17-1.76-.76-.42-1.52-.82-2.26-1.25-.92-.51-1.84-1-2.75-1.57-1.23-.69-2.42-1.41-3.6-2.12,0,0-.09,0-.11-.08q-1.18-.69-2.31-1.38c-1.12-.67-2.18-1.35-3.23-2l-1.33-.85c-8.64-5.57-15.42-10.88-19.25-15.46-.12-.15-.23-.3-.35-.44-.53-.67-1-1.34-1.42-2-.19-.29-.35-.56-.5-.82a12.24,12.24,0,0,1-1-2.36,6.94,6.94,0,0,1-.15-.74s0,0,0-.09a6.33,6.33,0,0,1-.06-.86s0-.06,0-.07a3.78,3.78,0,0,1,.06-.83C401.82,798.89,516,621.87,534.92,600.49s40.36-33.16,52.49-33c.36,0,.77,0,1.23.08s1,.11,1.5.21c.83.13,1.73.3,2.73.5,3,.62,6.82,1.6,11.12,2.87.47.15,1,.29,1.47.42s1,.31,1.5.44l3.73,1.15,2.62.84.52.17c22.67,7.33,53,19.09,68.61,27.14a14.18,14.18,0,0,1,2.77,1.84C696,611.94,698.3,635.57,686.79,660.82Z"></path><path fill="#cbd3eb" d="M685.21,603.2c-3.29,1.21-12.65,3.56-32.47-.5-18.06-3.7-39.27-18.66-53-14.37-14.74,4.57-43,2.42-115.16,97.14-10.39,13.62-47,94.59-53.45,110.45-10.56,26.23-.31,48.7,18.76,63.69q-4.17-2.13-8.14-4.24l-2-1.11c-1.07-.57-2.13-1.17-3.17-1.75l-2.26-1.25c-.92-.52-1.84-1-2.74-1.58-1.24-.7-2.44-1.41-3.61-2.12,0,0-.09,0-.11-.08-.79-.45-1.56-.92-2.32-1.38-1.11-.68-2.17-1.34-3.23-2l-1.32-.85c-8.64-5.57-15.42-10.88-19.24-15.46-.12-.15-.24-.29-.35-.44-.54-.67-1-1.34-1.44-2-.18-.28-.34-.56-.49-.82a11.41,11.41,0,0,1-1-2.36c-.07-.25-.11-.51-.16-.75,0,0,0,0,0-.07a5.23,5.23,0,0,1-.06-.87.08.08,0,0,1,0-.08,3.82,3.82,0,0,1,.06-.83c3.59-20.68,117.82-197.69,136.7-219.09,18.71-21.23,40.35-33.14,52.48-32.93.36,0,.77,0,1.23.07s1,.11,1.5.22c.82.12,1.73.29,2.73.49,3,.63,6.78,1.61,11.12,2.87.47.15,1,.28,1.46.43l1.5.44,3.75,1.15c.86.26,1.73.55,2.62.84a2.77,2.77,0,0,1,.51.17c22.67,7.32,53,19.07,68.6,27.12A14.94,14.94,0,0,1,685.21,603.2Z" class="colorcbd3eb svgShape"></path><path fill="url(#s)" d="M672,595.72c-7.23-7-15.71-6.07-21.3-16.09-10-18-30.52-23-30.52-23l-28.42,15S636,607,672,595.72Z"></path><path fill="url(#t)" d="M682.8,669.62c-15.26,33.94-31.52,71.78-57.71,100.59a56.78,56.78,0,0,0-7.55,11.44c31.14-62.67,39.55-130.14,39.55-130.14S674.8,658.81,682.8,669.62Z"></path><rect width="298.2" height="205.26" x="658.91" y="762.7" fill="url(#u)" transform="rotate(-29.83 807.995 865.321)"></rect><rect width="69.69" height="205.32" x="929.85" y="672.71" fill="#d25927" transform="rotate(-29.89 964.535 775.297)" class="colord25927 svgShape"></rect><path fill="url(#v)" d="M955.55,719.53l-11.06,6.36c-3.27,1.88-8-.28-10.65-4.83h0c-2.61-4.55-2.07-9.77,1.21-11.65l11.05-6.35c3.28-1.88,8,.28,10.66,4.82h0C959.37,712.43,958.83,717.65,955.55,719.53Z"></path><path fill="url(#w)" d="M708,852.55l-27.7,15.91c-2,1.16-4.91-.17-6.51-2.94h0c-1.6-2.79-1.27-6,.74-7.13l27.7-15.92c2-1.16,4.92.17,6.52,2.95h0C710.34,848.2,710,851.39,708,852.55Z"></path><path fill="url(#x)" d="M719.27,872.21l-27.7,15.92c-2,1.15-4.92-.17-6.52-3h0c-1.59-2.79-1.26-6,.74-7.12l27.71-15.93c2-1.14,4.92.17,6.52,3h0C721.61,867.87,721.28,871.06,719.27,872.21Z"></path><path fill="#f8b1ba" d="M930.59,761.94c16.12,10.65,26.37,27.58,39.06,19.68,11-6.87,14.07-16.73,14.76-27.77.12-2-1.46-10.68-4.39-12.12-6.43-3.17-19.08-3.62-34.13-3.52-22,.16-114.4-30.76-146.27-34.75-31.6-4-53.36,32.88-32.51,38.4C797.94,750,914.47,751.29,930.59,761.94Z" class="colorf8b1ba svgShape"></path><path fill="url(#y)" d="M658.62,611.43c11-11.67,34.78-10.67,62.69,8.31s76.21,71.8,93.58,90.29c16.18,17.21-1.94,62-44.65,39.69s-79.83-54.36-104.45-85.37C640.54,632.55,653.62,616.75,658.62,611.43Z"></path><path fill="url(#z)" d="M773,750.77c33.41,9.58,88.87,13.85,158,22.49,0,0,12.31-25.21,4.35-44.8,0,0-130-27.62-144-29.45S738.18,740.8,773,750.77Z"></path><path fill="#6669b0" d="M556.71,1366.24c-11.74,0-17.87-4-20.44-10.39-7.65-1.52-7.34,3.06-12.62,6.93-15.59,11.48-31.57,1.54-33.89,5.33-15.06,24.67,2.6,28.64,2.6,28.64l99,0S591.35,1366.26,556.71,1366.24Z" class="color6669b0 svgShape"></path><path fill="#3f4164" d="M611,796a81,81,0,0,1,5-11.34C614.31,788.15,612.63,792,611,796Z" class="color3f4164 svgShape"></path><path fill="url(#A)" d="M673.33,476.9c-7.81.56-17.19,4.42-28,14.08,0,0,13.1-64.34,69.12-55.87,59.76,9,63.23,71.72,43.5,83.59C757.92,518.7,734.41,472.46,673.33,476.9Z"></path><path fill="#d25927" d="M710.8,434.88a2.67,2.67,0,0,1,2.72,0,2.59,2.59,0,0,1,1.73,1.17,2.5,2.5,0,0,1,3.41-1.28c21.4,9.72,33,31,29.25,54.23-.58,3.58-6.15,2.8-5.57-.78,3.37-20.8-6.63-39.53-25.88-48.28-.31-.14-.36-.43-.56-.62.36,7.21-1.29,14.3-.79,21.52s2.73,14,1.49,21.3c-.6,3.57-6.18,2.78-5.57-.79,1.26-7.42-1.42-14.5-1.6-21.89-.16-6,1-11.9,1-17.86-15.25,8.72-32.31,16.48-37.8,34.58-1.05,3.46-6.22,1.23-5.18-2.2C673.66,453.33,693.76,445.18,710.8,434.88Z" class="colord25927 svgShape"></path><path fill="#d25927" d="M707.28 480s72.32 29.53 76.65 32.87c0 0 5.19-.57 16.85 11.73 25.42 26.81-40.39 1.65-40.39 1.65S756 502.13 707.28 480zM709.68 433.45a5.24 5.24 0 112.15 7.09A5.24 5.24 0 01709.68 433.45z" class="colord25927 svgShape"></path><path fill="url(#B)" d="M1312.63,988.15c9,1.27,46-2.63,83.59-8.06,11.16-1.6,22.37-3.36,32.9-5.16,24.72-4.2,45.76-8.63,53.78-12,7.82-3.35.54-56.28-30.69-59.28-13.31-1.29-150.29,32-163.28,42.92C1273.69,959.37,1289.6,984.91,1312.63,988.15Z"></path><path fill="#cbd3eb" d="M1283.69,964.61c-1.83-6.58-.52-13.23,5.24-18.08,13-10.94,149.94-43.91,163.27-42.92,7.56.56,20.4,7.27,26.15,15.62C1369.18,936.44,1280.34,946.4,1283.69,964.61Z" class="colorcbd3eb svgShape"></path><path fill="#fed2a7" d="M1309.5 944.15c-27.52-7.5-112.27-3.28-126.69-13.3s-42.45-18.12-53.75-10.46c-11.54 7.82-5.16 16.61 5.64 24.33 6.85 4.9 15 9.27 34.54 8.92s96.17 25 124.61 28.54C1322 985.67 1328.12 949.23 1309.5 944.15zM1721 1711.09c-25.31-8.53-34.88-50.08-39.31-72.34l-27.81 10.44s10.56 40.56 7.2 66.48 4.18 23.48 4.18 23.48h88.13S1746.28 1719.64 1721 1711.09z" class="colorfed2a7 svgShape"></path><path fill="#6669b0" d="M1721,1711.09c-7.64-2.57-13.84-8.17-18.9-15.32-3.26-5-21.19.52-24.79,10.3,0,0-7.39,5.14-15.75,4.36-.1,1.8-.26,3.55-.48,5.24-3.37,25.93,4.18,23.48,4.18,23.48h88.13S1746.28,1719.64,1721,1711.09Z" class="color6669b0 svgShape"></path><path fill="#fed2a7" d="M1353.32,1713.11c46.23,0,52.43-26.58,48.3-54.91h30.91c-.38,12.62-.2,32.45,3.28,50.08,5.18,26.32-7.93,30.87-7.93,30.87H1315.34S1331.63,1713.11,1353.32,1713.11Z" class="colorfed2a7 svgShape"></path><path fill="#6669b0" d="M1398,1714.94c-4.33-6.56,8.75-19-1-19.6-6.63,10.71-19.81,17.77-43.63,17.77-21.69,0-38,26-38,26h112.54s12.31-4.27,8.36-28.47C1424.44,1710.68,1404.48,1724.85,1398,1714.94Z" class="color6669b0 svgShape"></path><path fill="url(#C)" d="M1500.29,1106.26c-14.5-29.79-50.32-30.86-63.16-20l-.79.68c-8.36,7.8-28.16,35.71-36.38,73.66-3.13,14.37-3.43,39.27-2.52,68.42,1.4,45.71,5.77,101.82,6.87,144.2,0,.48-.12.9-.15,1.41-.74,11.12-9,117.47-6.87,165.38s-3.4,131.87-3.4,131.87,14.07,8.58,46.32,5.49c0,0-.55-57.67,8.57-83.47s19.22-53.72,17.83-109.3c-1.34-53.67-1-62.39-.51-77.21,6.93-36.44,26.51-95.93,39.1-144.51.65-2.54,1.29-5,1.92-7.52s1.21-4.91,1.79-7.31q1.27-5.41,2.38-10.53c.5-2.25,1-4.5,1.39-6.65a203.43,203.43,0,0,0,3.41-23.25C1520.12,1154,1514.78,1136,1500.29,1106.26Z"></path><path fill="#d25927" d="M1429.65,1678c.27-18.53,1.66-58.38,8.51-79,9.12-27.51,5.8-82.75,4.41-142s23.63-73,24.17-89.89c.17-5.34-.36,32.26-.59,38.77-.54,15.85-.93,23.21.46,78.79s-8.72,83.51-17.83,109.3-8.57,83.47-8.57,83.47C1436.44,1677.78,1432.94,1678,1429.65,1678Z" class="colord25927 svgShape"></path><path fill="#d25927" d="M1486.88,1273.58c-.89,8.16-41.28,176.6-44.31,183.39-.6,1.33,19-2.84,20.81-25l.12-1.7c0-.56,0-1.14,0-1.75,0-1.25,0-2.6.14-4,2-32,26.67-104.4,41.52-161.57.65-2.54,1.29-5,1.92-7.52s1.21-4.91,1.79-7.31q1.27-5.41,2.38-10.53c.49-2.25,1-4.5,1.39-6.65a203.43,203.43,0,0,0,3.41-23.25c4-53.63-1.31-71.63-15.8-101.41s-50.32-30.86-63.16-20l-.79.68c-8.36,7.8-28.16,35.71-36.38,73.66-3.13,14.37-3.43,39.27-2.52,68.42C1432.31,1256,1488.89,1255.13,1486.88,1273.58Z" class="colord25927 svgShape"></path><path fill="url(#D)" d="M1670.43,1540.06c-7.1-47.91-24.24-92.25-33-117.52-3.74-10.79-5.75-18.76-8.62-29.86-12-66.47-15.18-193.3-31.94-234.31-16-39.21-44.32-65.41-53.42-72.06-14.94-10.91-50.55-9.84-59.32,20s-10.67,47.79,3.67,101.41c12.27,45.85,64.26,145.26,84,198.29,3.59,15.78,9.42,23.24,18.68,78.69s24.76,83.51,38.83,109.3,24.57,75.06,24.57,75.06c27.09,1.62,38.11-11.84,38.11-11.84S1677.52,1588,1670.43,1540.06Z"></path><path fill="#d25927" d="M1651.62,1552.41c-7.1-47.91-16.11-76-24.88-101.24-3.75-10.8-9.58-59.93-12.45-71.05-5-19.38,6.45-18.67,14.5,12.52,2.87,11.12,4.88,19.1,8.63,29.9,8.77,25.27,25.91,69.61,33,117.52S1692,1657.17,1692,1657.17s-5.8,7-19.23,10.31C1670.32,1655.74,1658,1595.49,1651.62,1552.41Z" class="colord25927 svgShape"></path><path fill="#d25927" d="M1595.88,1264.17c-.38-15.2-11.59-27.42-25.74-31.46-6.78-1.94-35.84,3.5-54.48,6.9a18.78,18.78,0,0,1-21.05-12.15c-3-8.25-6.12-17.18-6.82-19.79-14.34-53.62-12.45-71.63-3.67-101.41s44.38-30.86,59.32-20c9.1,6.65,37.39,32.86,53.42,72.06,18.53,45.34,20.52,195.56,36,253.17,5.35,19.86,1.5,32.82-6.16,39.63C1626.78,1450.4,1596.32,1281.74,1595.88,1264.17Z" class="colord25927 svgShape"></path><path fill="#cbd3eb" d="M1518.68,901.62s-37.75-8.27-64.33.14v8.42l62.57,1.65Z" class="colorcbd3eb svgShape"></path><path fill="#2a276f" d="M1536,838.37c-7.59-27,16-36.23-13.27-59.51s-40.25-10.12-57.31-7.22C1422.15,779,1418.18,844,1449.1,870,1477.71,894,1544.11,867.3,1536,838.37Z" class="color2a276f svgShape"></path><path fill="#fed2a7" d="M1532.39,1022.29c1.39-12.1,5.74-23.26,16.78-65,4.31-16.27,10.88-25.58,6.81-32.85-5.15-9.2-22.89-14.08-34.46-14.08-20.92,0-10.85-50.45-10.85-50.45-3.21-10.51-38-8.67-36.36,25s-31.59,18.51-39.5,24.75c-10.85,8.57-10,26.88-12.19,36.79s-16.91,21.69-14.91,40,19.28,17.63,19.28,17.63c6.17,7.09,11.91,20,12.5,29.11,1.38,21.23-9.13,42.38-9.13,42.38,61.39,26.93,113.61,3.3,113.61,3.3S1528.21,1058.57,1532.39,1022.29Z" class="colorfed2a7 svgShape"></path><path fill="#fbbb8f" d="M1521.52,910.39c-20.92,0-10.85-50.45-10.85-50.45-1.78-5.84-13.29-7.86-22.9-2.75,6.49,1.68,22,30.24,12.66,72-2.64,11.86-15.45,18.87-27.24,21.18,0,0,74.36,13.08,76,7C1553.48,941.05,1533.09,910.39,1521.52,910.39Z" class="colorfbbb8f svgShape"></path><path fill="url(#E)" d="M1436,1225.52h0c3.33.31,6.72.57,10.17.76,2,.13,4,.22,6.07.31,1.87.08,3.75.14,5.62.2l17.44-26.15,21.12,25.63c59.49,2.29,118.86-13.79,118.86-13.79a276.94,276.94,0,0,0-11.61-50.88.51.51,0,0,0,0-.11c-20.3-61.53-51.29-87.54-21.83-193.61,0,0,0-.06,0-.11,4.5-16.2-13-37.73-23.5-48.53-6.61-6.82-25.76-8.51-36.87-8.85-17.9,22.39-46.08,38.94-46.08,38.94s-19.33-31.54-21.89-41.64c-5-.12-16.47-.2-18.73,1.59-10.86,8.57-12,26-14.19,35.86s-16.27,23.93-14.25,42.21c1.91,17.46,16.61,26.63,17.92,27.42l.1.06c19.25,106-27.4,81.82-32.52,200.95,11.68,5.12,27,8.15,44.15,9.74Z"></path><path fill="#cbd3eb" d="M1424.05,1014.59a1.86,1.86,0,0,1,.24.18l.1.06c0,1.59,103.85,28.38,114.94,43.54,8.32,11.4,46.42,116.47,33.44,129.23s-63.84-22.86-69.16-18.75c-3.75,2.89-64.55,50-67.59,56.67,3.35.3,6.75.56,10.22.76,2,.13,4,.22,6.07.31,1.87.08,3.75.14,5.62.2l17.44-26.15,21.12,25.63c59.49,2.29,118.86-13.79,118.86-13.79-2.5-17.58-6.8-34.07-11.61-50.88a.51.51,0,0,0,0-.11c-20.3-61.53-51.29-87.54-21.83-193.61-7.08-1.19-45.22-19-60-12.72-.47.2,5.16,72.6-13.62,70.65-5-.52-9.9-1.19-14.86-1.81-1.79-.24-28.42-1-38.38-2.22A163.12,163.12,0,0,1,1424.05,1014.59Z" class="colorcbd3eb svgShape"></path><path fill="#fed2a7" d="M1504.73,823S1473.21,791,1460,795.79s-22.9,10.61-22.64,27.48c0,0-1.59,15.78,8,29.34,0,0-9.84,22.9,18.54,36.51s51.75-15.62,52.29-40.58c0,0,19.6-2.45,14.44-19.35S1514.65,816.34,1504.73,823Z" class="colorfed2a7 svgShape"></path><path fill="#fbbb8f" d="M1504.73,823S1473.21,791,1460,795.79c-10.62,3.87-18.89,8.36-21.64,18.64,7.5-6.15,53.42,13.66,63,33.75,9.78,20.45-6.19,43.32-28,42.66a42,42,0,0,1-7.8-1c27.63,11.72,50.11-16.82,50.64-41.3,0,0,19.6-2.45,14.44-19.35S1514.65,816.34,1504.73,823Z" class="colorfbbb8f svgShape"></path><path fill="#2a276f" d="M1427,836.64s18.63-12.43,24.78-29,13-17.39,13-17.39C1423.3,791.14,1427,836.64,1427,836.64Z" class="color2a276f svgShape"></path><path fill="#2a276f" d="M1458,794.06c-3.41,7,1.63,21,22.64,29.66s25,29.28,31.52,14,5.87-17,.53-31.21S1465.47,778.74,1458,794.06Z" class="color2a276f svgShape"></path><path fill="#cbd3eb" d="M1537.52,910.18S1528,932.86,1509.87,945s-25.85,28.13-26.52,35.94l-12.94,8.66,7.71,9.45s-11.8,10.65-11.47,23.82c0,0-9.71-20.41-6.85-36.21s18.22-42.17,26.75-51.41,29.78-24.67,32.13-33.59C1518.68,901.62,1527,903.38,1537.52,910.18Z" class="colorcbd3eb svgShape"></path><path fill="#cbd3eb" d="M1456.45,901.62s1.92,16.88,9.4,29,10.3,13.35,8.5,22-20,23.21-10.31,63.79c0,0-12.39-10.22-14.41-19.29l4.54-9.07-5-5.82s2.71-17.36,7.75-27.07-15.87-34.06-15.87-49.85C1441.08,905.31,1450.65,901.62,1456.45,901.62Z" class="colorcbd3eb svgShape"></path><path fill="#cddbef" d="M1479.83 952.62a4.39 4.39 0 11-4.39-4.39A4.39 4.39 0 011479.83 952.62zM1464.19 982.23a4.39 4.39 0 11-4.39-4.39A4.39 4.39 0 011464.19 982.23zM1470.24 1017.49a4.39 4.39 0 11-4.39-4.39A4.4 4.4 0 011470.24 1017.49zM1471.9 1060a4.39 4.39 0 11-4.39-4.39A4.4 4.4 0 011471.9 1060zM1474.63 1103.35a4.39 4.39 0 11-4.39-4.39A4.4 4.4 0 011474.63 1103.35zM1477.36 1146.76a4.39 4.39 0 11-4.39-4.39A4.4 4.4 0 011477.36 1146.76z" class="colorcddbef svgShape"></path><path fill="url(#F)" d="M1518.63,955c6,24.59,58.6,123.58,71.53,136.57,6.9,6.93,23.11,7.09,33.74,2.94,0,0,.08,0,.11-.06a17.61,17.61,0,0,0,9.48-8.15c.15-.28.31-.59.44-.9a17.91,17.91,0,0,0,1.44-6.13c.4-7-7-27.58-19.95-57.61-5.48-12.69-11.46-26-17.31-38.6q-2.37-5.17-4.73-10.13c-1.55-3.33-3.1-6.57-4.59-9.69-1-2.1-2-4.15-3-6.14-1.95-4-3.81-7.77-5.55-11.27-.89-1.75-1.73-3.44-2.56-5.06-5.35-10.48-9.43-17.79-11.22-19.86-.3-.32-.62-.67-.94-1a7.54,7.54,0,0,0-.58-.54,4.84,4.84,0,0,0-.54-.46c-5.4-4.4-13.07-5-21.07-3.57C1525.36,918.61,1517.27,949.41,1518.63,955Z"></path><path fill="#cbd3eb" d="M1624,1094.43a17.61,17.61,0,0,0,9.48-8.15c.15-.28.31-.59.44-.9a17.91,17.91,0,0,0,1.44-6.13c.4-7-7-27.58-19.95-57.61-5.48-12.69-11.47-26-17.31-38.6q-2.38-5.14-4.73-10.13c-1.56-3.31-3.1-6.57-4.59-9.69-1-2.1-2-4.13-3-6.14-1.95-4-3.81-7.77-5.55-11.27-.89-1.75-1.73-3.44-2.56-5.06a205.37,205.37,0,0,0-11.22-19.86c-6.32-8.92-15.13-7-23.13-5.55C1595.19,1012.91,1640.34,1085.83,1624,1094.43Z" class="colorcbd3eb svgShape"></path><rect width="122.19" height="180.34" x="1401.75" y="945.63" fill="#221d59" rx="1.4" transform="rotate(167.43 1462.845 1035.795)" class="color221d59 svgShape"></rect><path fill="url(#G)" d="M1433.94,954.05a15.77,15.77,0,0,1-15.35-12.3h0A15.75,15.75,0,0,1,1430.52,923a15.72,15.72,0,1,1,3.42,31.07Zm-11-13.27a11.31,11.31,0,0,0,20.58,3.61,11.32,11.32,0,0,0-3.48-15.61,11.3,11.3,0,0,0-17.1,12Z"></path><rect width="122.18" height="180.34" x="1393.67" y="947.43" fill="#29266e" rx="1.4" transform="rotate(167.43 1454.762 1037.597)" class="color29266e svgShape"></rect><rect width="34.58" height="8.83" x="1419.59" y="947.1" fill="url(#H)" transform="rotate(167.42 1436.869 951.539)"></rect><path fill="#fed2a7" d="M1624.24,1060.5c-29.14-7.47-123.36-2.68-138.72-13s-45.06-18.41-56.84-10.15c-12,8.43-5.17,17.6,6.34,25.56,7.3,5.06,16,9.53,36.56,8.83s105.64,25.32,135.68,28.57C1637,1103.52,1644,1065.55,1624.24,1060.5Z" class="colorfed2a7 svgShape"></path><path fill="url(#I)" d="M1523.56,823.09c5.41,5.09,10,13.53,12.22,27.13,0,0,28.82-55.2-17.49-82.46-49.4-29.08-89.44,15-82,35.55C1436.29,803.31,1481.24,783.31,1523.56,823.09Z"></path><path fill="#d25927" d="M1521.09,769.76a2.55,2.55,0,0,0-2-1.63,2.49,2.49,0,0,0-2-.18,2.37,2.37,0,0,0-1.74-3c-21.57-5.63-42.85,3.08-54,22.45-1.71,3,2.85,5.73,4.57,2.75,10-17.32,28.5-25.14,47.91-20.08.31.08.52-.1.79-.12-4.58,5.09-7.6,11.3-12.29,16.32S1492,795,1488.57,801.08c-1.68,3,2.89,5.75,4.58,2.75,3.5-6.22,9.71-9.83,14.26-15.16,3.7-4.32,6.38-9.36,10-13.72,6,15.54,13.95,31.45,7.17,48.06-1.29,3.18,3.84,4.62,5.12,1.48C1537.41,805.55,1527.48,787.52,1521.09,769.76Z" class="colord25927 svgShape"></path><path fill="#d25927" d="M1496.7 805.09s-35.28-17.67-39.73-20.34c-32.56-19.55-67.38-23-73.5-9.3-14.38 32 46.48 31.94 46.48 31.94S1447.6 792.24 1496.7 805.09zM1522.77 769.38a5 5 0 10-5.83 3.93A5 5 0 001522.77 769.38z" class="colord25927 svgShape"></path><path fill="url(#J)" d="M1521.68,485.76h245.76a35.3,35.3,0,0,1,35.29,35.31V655.78a35.3,35.3,0,0,1-35.29,35.3H1613.76l-53.34,64.12a6.9,6.9,0,0,1-12.43-4.12l16.15-60h-42.46a35.3,35.3,0,0,1-35.3-35.3V521.07A35.3,35.3,0,0,1,1521.68,485.76Z"></path><polygon fill="#ffffff" points="1525.45 523.78 1525.45 533.71 1667.36 533.71 1667.52 523.78 1525.45 523.78" class="colorfff svgShape"></polygon><polygon fill="#ffffff" points="1525.45 553.65 1525.45 563.58 1781.85 563.58 1782.01 553.65 1525.45 553.65" class="colorfff svgShape"></polygon><polygon fill="#ffffff" points="1525.45 583.52 1525.45 593.45 1763.5 593.45 1763.67 583.52 1525.45 583.52" class="colorfff svgShape"></polygon><polygon fill="#ffffff" points="1682.21 533.71 1726.02 533.71 1726.18 523.78 1682.37 523.78 1682.21 533.71" class="colorfff svgShape"></polygon><polygon fill="#ffffff" points="1525.45 611.44 1525.45 621.37 1667.36 621.37 1667.52 611.44 1525.45 611.44" class="colorfff svgShape"></polygon><polygon fill="#ffffff" points="1525.45 641.32 1525.45 651.25 1781.85 651.25 1782.01 641.32 1525.45 641.32" class="colorfff svgShape"></polygon><polygon fill="#ffffff" points="1682.21 621.37 1726.02 621.37 1726.18 611.44 1682.37 611.44 1682.21 621.37" class="colorfff svgShape"></polygon><g clip-path="url(#K)" fill="#000000" class="color000 svgShape"><rect width="1391.59" height="1586.66" x="1970.51" y="178.29" fill="#ffffff" opacity=".35" class="colorfff svgShape"></rect><path fill="url(#L)" d="M4828.68,464.49V446.33h-50V160.14H1964.92v36.32h30.32v12.81h897.42V446.33H1964.92v18.16h927.74V930.43H1964.92v18.15h927.74v465.95H1964.92v18.15h927.74v303.61H1995.52v10.5h-30.6v42H4778.68v-3.37h0V1432.68h50v-18.15h-50V948.58h50V930.43h-50V464.49ZM3387.09,948.58h433.42v465.95H3387.09Zm0-18.15V464.49h433.42V930.43Zm0-484.1V209.26h433.42V446.33Zm0,986.35h433.42v303.61H3387.24v10.5h-.15ZM3851,1736.29V1432.68h433.41v303.61Zm0-321.76V948.58h433.41v465.95Zm0-484.1V464.49h433.41V930.43Zm0-484.1V209.26h433.41V446.33Zm463.86-237.07h433.42V446.33H4314.82Zm-1391.72,0h433.42V446.33H2923.1Zm0,255.23h433.42V930.43H2923.1Zm0,484.09h433.42v465.95H2923.1Zm0,484.1h433.42v314.11h-.16v-10.5H2923.1Zm1825.14,314.11h-.16v-10.5H4314.82V1432.68h433.42Zm0-332.26H4314.82V948.58h433.42Zm0-484.1H4314.82V464.49h433.42Z"></path></g></svg></g></svg>